<svg width="82" height="40" viewBox="0 0 82 40" fill="none" xmlns="http://www.w3.org/2000/svg">
<path d="M12.6808 24.6642L11.492 22.2865H11.3652C10.5303 23.3221 9.67968 24.0301 8.81316 24.4105C7.94663 24.791 6.8265 24.9812 5.45274 24.9812C3.76197 24.9812 2.43049 24.4739 1.45829 23.4595C0.486097 22.445 0 21.0184 0 19.1797C0 17.267 0.665742 15.8457 1.99723 14.9158C3.32871 13.9753 5.25725 13.4469 7.78284 13.3307L10.7787 13.2356V12.982C10.7787 11.5025 10.0495 10.7628 8.59124 10.7628C7.28089 10.7628 5.61654 11.2067 3.59818 12.0943L1.80701 8.00476C3.89935 6.92689 6.54118 6.38795 9.73251 6.38795C12.0362 6.38795 13.8168 6.95859 15.0743 8.09986C16.3424 9.24113 16.9764 10.8368 16.9764 12.8869V24.6642H12.6808ZM8.08401 20.6063C8.83429 20.6063 9.47361 20.3685 10.002 19.893C10.5409 19.4175 10.8104 18.7993 10.8104 18.0384V16.6436L9.38379 16.707C7.3443 16.7809 6.32455 17.5312 6.32455 18.9578C6.32455 20.0568 6.91104 20.6063 8.08401 20.6063Z" fill="#D7DEE4"/>
<path d="M27.3905 24.6642H21.1928V0H27.3905V24.6642Z" fill="#D7DEE4"/>
<path d="M53.7349 24.6642V14.8999C53.7349 13.6847 53.5658 12.7759 53.2277 12.1736C52.9001 11.5607 52.377 11.2542 51.6584 11.2542C50.7074 11.2542 50.0099 11.6611 49.5661 12.4747C49.1222 13.2884 48.9003 14.5618 48.9003 16.2948V24.6642H42.6867V14.8999C42.6867 13.6847 42.5282 12.7759 42.2112 12.1736C41.8942 11.5607 41.3817 11.2542 40.6737 11.2542C39.7015 11.2542 38.9935 11.6875 38.5496 12.554C38.1058 13.4205 37.8839 14.8365 37.8839 16.8021V24.6642H31.6861V6.70497H36.3622L37.1389 8.92411H37.5035C37.979 8.09986 38.6659 7.4711 39.5641 7.03784C40.4729 6.60458 41.5032 6.38795 42.655 6.38795C45.244 6.38795 47.0616 7.17522 48.1078 8.74975H48.5992C49.1064 8.01004 49.8091 7.43412 50.7074 7.02199C51.6161 6.5993 52.6148 6.38795 53.7032 6.38795C55.8272 6.38795 57.3965 6.93217 58.4109 8.02061C59.4254 9.10904 59.9326 10.7628 59.9326 12.982V24.6642H53.7349Z" fill="#D7DEE4"/>
<path d="M81.2998 15.6449C81.2998 18.5827 80.5072 20.8758 78.9221 22.5243C77.3476 24.1622 75.139 24.9812 72.2964 24.9812C69.57 24.9812 67.3985 24.1411 65.7817 22.4609C64.1754 20.7807 63.3723 18.5087 63.3723 15.6449C63.3723 12.7178 64.1596 10.4458 65.7341 8.82901C67.3192 7.20164 69.5383 6.38795 72.3915 6.38795C74.1563 6.38795 75.7149 6.76309 77.0676 7.51337C78.4202 8.26365 79.4611 9.34152 80.1902 10.747C80.9299 12.1419 81.2998 13.7745 81.2998 15.6449ZM69.6651 15.6449C69.6651 17.1878 69.8712 18.366 70.2833 19.1797C70.6955 19.9828 71.3876 20.3844 72.3598 20.3844C73.3214 20.3844 73.9978 19.9828 74.3887 19.1797C74.7903 18.366 74.9911 17.1878 74.9911 15.6449C74.9911 14.1127 74.7903 12.9556 74.3887 12.1736C73.9872 11.3916 73.3003 11.0006 72.3281 11.0006C71.3771 11.0006 70.6955 11.3916 70.2833 12.1736C69.8712 12.945 69.6651 14.1021 69.6651 15.6449Z" fill="#D7DEE4"/>
<path d="M46.0987 40C45.104 40 44.3471 39.7107 43.828 39.1322C43.3129 38.5496 43.0553 37.7155 43.0553 36.6297C43.0553 35.5241 43.3247 34.6741 43.8637 34.0796C44.4066 33.4852 45.1892 33.188 46.2116 33.188C46.9051 33.188 47.5292 33.3168 48.084 33.5744L47.662 34.6978C47.0715 34.468 46.5841 34.3531 46.1997 34.3531C45.0624 34.3531 44.4938 35.108 44.4938 36.6178C44.4938 37.3549 44.6344 37.9096 44.9158 38.2821C45.2011 38.6507 45.6172 38.8349 46.1641 38.8349C46.7862 38.8349 47.3747 38.6804 47.9295 38.3713V39.5899C47.6798 39.7365 47.4123 39.8415 47.127 39.9049C46.8457 39.9683 46.5029 40 46.0987 40Z" fill="#D7DEE4" fill-opacity="0.6"/>
<path d="M59.0799 36.5821C59.0799 37.656 58.8045 38.4942 58.2537 39.0965C57.7029 39.6988 56.9361 40 55.9533 40C55.3391 40 54.7962 39.8613 54.3246 39.5839C53.8531 39.3065 53.4905 38.9083 53.2369 38.3891C52.9832 37.87 52.8564 37.2677 52.8564 36.5821C52.8564 35.5161 53.1299 34.684 53.6767 34.0856C54.2236 33.4872 54.9943 33.188 55.989 33.188C56.94 33.188 57.693 33.4951 58.2478 34.1094C58.8025 34.7196 59.0799 35.5439 59.0799 36.5821ZM54.2949 36.5821C54.2949 38.0999 54.8556 38.8587 55.9771 38.8587C57.0867 38.8587 57.6415 38.0999 57.6415 36.5821C57.6415 35.0802 57.0827 34.3293 55.9652 34.3293C55.3787 34.3293 54.9527 34.5235 54.6872 34.9118C54.4257 35.3002 54.2949 35.8569 54.2949 36.5821Z" fill="#D7DEE4" fill-opacity="0.6"/>
<path d="M66.6818 40C65.8615 40 65.2215 39.7028 64.7618 39.1084C64.3021 38.514 64.0723 37.6798 64.0723 36.6059C64.0723 35.528 64.3041 34.6899 64.7677 34.0915C65.2353 33.4892 65.8813 33.188 66.7055 33.188C67.5694 33.188 68.2272 33.507 68.679 34.145H68.7503C68.6829 33.6735 68.6493 33.301 68.6493 33.0275V30.6321H70.0521V39.8811H68.9584L68.7146 39.0192H68.6493C68.2015 39.6731 67.5456 40 66.6818 40ZM67.0562 38.8706C67.6308 38.8706 68.0489 38.7101 68.3104 38.3891C68.572 38.0642 68.7067 37.5391 68.7146 36.8139V36.6178C68.7146 35.7896 68.5799 35.2011 68.3104 34.8524C68.041 34.5037 67.6189 34.3293 67.0443 34.3293C66.553 34.3293 66.1745 34.5294 65.909 34.9297C65.6435 35.3259 65.5108 35.8926 65.5108 36.6297C65.5108 37.3588 65.6396 37.9156 65.8971 38.3C66.1547 38.6804 66.5411 38.8706 67.0562 38.8706Z" fill="#D7DEE4" fill-opacity="0.6"/>
<path d="M78.6941 40C77.6717 40 76.8713 39.7028 76.2927 39.1084C75.7181 38.51 75.4308 37.6877 75.4308 36.6416C75.4308 35.5677 75.6983 34.7236 76.2332 34.1094C76.7682 33.4951 77.5033 33.188 78.4385 33.188C79.3064 33.188 79.9919 33.4516 80.4952 33.9786C80.9985 34.5056 81.2501 35.2308 81.2501 36.1541V36.9091H76.8693C76.8891 37.5471 77.0615 38.0384 77.3864 38.3832C77.7114 38.724 78.1691 38.8944 78.7595 38.8944C79.1479 38.8944 79.5085 38.8587 79.8413 38.7874C80.1782 38.7121 80.5388 38.5893 80.9232 38.4189V39.5542C80.5824 39.7167 80.2376 39.8316 79.8889 39.8989C79.5402 39.9663 79.1419 40 78.6941 40ZM78.4385 34.2461C77.9947 34.2461 77.638 34.3868 77.3686 34.6681C77.1031 34.9495 76.9446 35.3596 76.893 35.8986H79.877C79.8691 35.3557 79.7383 34.9455 79.4847 34.6681C79.2311 34.3868 78.8823 34.2461 78.4385 34.2461Z" fill="#D7DEE4" fill-opacity="0.6"/>
</svg>
